<mxfile host="app.diagrams.net" modified="2024-06-11T07:23:50.684Z" agent="Mozilla/5.0 (Windows NT 10.0; Win64; x64) AppleWebKit/537.36 (KHTML, like Gecko) Chrome/125.0.0.0 Safari/537.36" version="24.5.2" etag="wZkWg-E6ne0G00VLx75p" type="github">
  <diagram name="Trang-1" id="0qQhfEZkwmvARVg69vRt">
    <mxGraphModel>
      <root>
        <mxCell id="0" />
        <mxCell id="1" parent="0" />
      </root>
    </mxGraphModel>
  </diagram>
</mxfile>
